<mxfile host="app.diagrams.net" modified="2024-06-03T15:56:35.566Z" agent="Mozilla/5.0 (Windows NT 10.0; Win64; x64) AppleWebKit/537.36 (KHTML, like Gecko) Chrome/125.0.0.0 Safari/537.36" etag="ouTE7Q1Cz65q3m4MwQsH" version="24.4.13" type="device">
  <diagram name="Page-1" id="UDzAbrIDUajz1ofXODJo">
    <mxGraphModel dx="1434" dy="756" grid="1" gridSize="10" guides="1" tooltips="1" connect="1" arrows="1" fold="1" page="1" pageScale="1" pageWidth="850" pageHeight="1100" math="0" shadow="0">
      <root>
        <mxCell id="0" />
        <mxCell id="1" parent="0" />
        <mxCell id="Gg7su3wt70-lEAnRqqlB-1" value="Service" style="swimlane;whiteSpace=wrap;html=1;" vertex="1" parent="1">
          <mxGeometry x="70" y="140" width="200" height="200" as="geometry" />
        </mxCell>
        <mxCell id="Gg7su3wt70-lEAnRqqlB-2" value="ServiceType" style="swimlane;whiteSpace=wrap;html=1;" vertex="1" parent="1">
          <mxGeometry x="510" y="140" width="200" height="200" as="geometry" />
        </mxCell>
        <mxCell id="Gg7su3wt70-lEAnRqqlB-3" value="Employee" style="swimlane;whiteSpace=wrap;html=1;" vertex="1" parent="1">
          <mxGeometry x="70" y="460" width="200" height="200" as="geometry" />
        </mxCell>
        <mxCell id="Gg7su3wt70-lEAnRqqlB-4" value="Vertical Container" style="swimlane;whiteSpace=wrap;html=1;" vertex="1" parent="1">
          <mxGeometry x="325" y="460" width="200" height="200" as="geometry" />
        </mxCell>
      </root>
    </mxGraphModel>
  </diagram>
</mxfile>
